<svg xmlns="http://www.w3.org/2000/svg" xmlns:xlink="http://www.w3.org/1999/xlink" width="397" zoomAndPan="magnify" viewBox="0 0 297.75 125.999998" height="168" preserveAspectRatio="xMidYMid meet" version="1.0"><defs><g/><clipPath id="1dd32d8c0b"><path d="M 0 7.65625 L 78.683594 7.65625 L 78.683594 86.339844 L 0 86.339844 Z M 0 7.65625 " clip-rule="nonzero"/></clipPath><clipPath id="16853bdbca"><rect x="0" width="125" y="0" height="33"/></clipPath></defs><g fill="#111e1e" fill-opacity="1"><g transform="translate(82.717944, 87.113956)"><g><path d="M 4.25 -45.8125 L 27.15625 -45.8125 C 29.945312 -45.8125 32.460938 -45.382812 34.703125 -44.53125 C 36.953125 -43.675781 38.875 -42.53125 40.46875 -41.09375 C 42.0625 -39.65625 43.296875 -37.960938 44.171875 -36.015625 C 45.046875 -34.078125 45.484375 -32 45.484375 -29.78125 C 45.484375 -28.070312 45.226562 -26.507812 44.71875 -25.09375 C 44.21875 -23.675781 43.550781 -22.410156 42.71875 -21.296875 C 41.894531 -20.179688 40.925781 -19.1875 39.8125 -18.3125 C 38.707031 -17.445312 37.539062 -16.6875 36.3125 -16.03125 L 45.8125 0 L 32.71875 0 L 24.546875 -13.734375 L 16.359375 -13.734375 L 16.359375 0 L 4.25 0 Z M 26.828125 -24.859375 C 28.796875 -24.859375 30.320312 -25.347656 31.40625 -26.328125 C 32.5 -27.316406 33.046875 -28.46875 33.046875 -29.78125 C 33.046875 -31.082031 32.5 -32.222656 31.40625 -33.203125 C 30.320312 -34.191406 28.796875 -34.6875 26.828125 -34.6875 L 16.359375 -34.6875 L 16.359375 -24.859375 Z M 26.828125 -24.859375 "/></g></g></g><g fill="#111e1e" fill-opacity="1"><g transform="translate(126.882314, 87.113956)"><g><path d="M 12.4375 -45.8125 L 34.6875 -45.8125 L 47.109375 0 L 34.6875 0 L 32.390625 -9.15625 L 14.71875 -9.15625 L 12.4375 0 L 0 0 Z M 29.78125 -19.625 L 25.84375 -34.6875 L 21.265625 -34.6875 L 17.34375 -19.625 Z M 29.78125 -19.625 "/></g></g></g><g fill="#111e1e" fill-opacity="1"><g transform="translate(168.75655, 87.113956)"><g><path d="M 27.8125 1.3125 C 24.0625 1.3125 20.613281 0.691406 17.46875 -0.546875 C 14.332031 -1.796875 11.640625 -3.5 9.390625 -5.65625 C 7.140625 -7.820312 5.394531 -10.375 4.15625 -13.3125 C 2.914062 -16.257812 2.296875 -19.457031 2.296875 -22.90625 C 2.296875 -26.351562 2.914062 -29.546875 4.15625 -32.484375 C 5.394531 -35.429688 7.140625 -37.984375 9.390625 -40.140625 C 11.640625 -42.304688 14.332031 -44.007812 17.46875 -45.25 C 20.613281 -46.488281 24.0625 -47.109375 27.8125 -47.109375 C 30.300781 -47.109375 32.546875 -46.859375 34.546875 -46.359375 C 36.554688 -45.859375 38.359375 -45.191406 39.953125 -44.359375 C 41.546875 -43.535156 42.941406 -42.609375 44.140625 -41.578125 C 45.335938 -40.554688 46.375 -39.5 47.25 -38.40625 C 49.300781 -35.875 50.785156 -33 51.703125 -29.78125 L 39.265625 -29.78125 C 38.691406 -30.90625 37.882812 -31.925781 36.84375 -32.84375 C 35.96875 -33.632812 34.796875 -34.351562 33.328125 -35 C 31.867188 -35.65625 30.03125 -35.984375 27.8125 -35.984375 C 25.9375 -35.984375 24.210938 -35.664062 22.640625 -35.03125 C 21.066406 -34.40625 19.722656 -33.523438 18.609375 -32.390625 C 17.503906 -31.253906 16.632812 -29.878906 16 -28.265625 C 15.363281 -26.648438 15.046875 -24.863281 15.046875 -22.90625 C 15.046875 -20.9375 15.363281 -19.144531 16 -17.53125 C 16.632812 -15.914062 17.503906 -14.539062 18.609375 -13.40625 C 19.722656 -12.28125 21.066406 -11.398438 22.640625 -10.765625 C 24.210938 -10.128906 25.9375 -9.8125 27.8125 -9.8125 C 30.125 -9.8125 32.007812 -10.148438 33.46875 -10.828125 C 34.925781 -11.503906 36.09375 -12.257812 36.96875 -13.09375 C 37.976562 -14.050781 38.742188 -15.140625 39.265625 -16.359375 L 33.046875 -16.359375 L 33.046875 -25.515625 L 56.9375 -25.515625 L 56.9375 -16.359375 L 51.765625 -16.359375 C 50.710938 -13.046875 49.140625 -10.101562 47.046875 -7.53125 C 46.128906 -6.394531 45.070312 -5.300781 43.875 -4.25 C 42.675781 -3.207031 41.28125 -2.269531 39.6875 -1.4375 C 38.09375 -0.613281 36.3125 0.046875 34.34375 0.546875 C 32.382812 1.054688 30.207031 1.3125 27.8125 1.3125 Z M 27.8125 1.3125 "/></g></g></g><g fill="#111e1e" fill-opacity="1"><g transform="translate(222.081046, 87.113956)"><g><path d="M 3.59375 -34.03125 L 14.71875 -34.03125 L 14.71875 0 L 3.59375 0 Z M 9.15625 -37.625 C 7.320312 -37.625 5.828125 -38.179688 4.671875 -39.296875 C 3.515625 -40.410156 2.9375 -41.707031 2.9375 -43.1875 C 2.9375 -44.71875 3.515625 -46.023438 4.671875 -47.109375 C 5.828125 -48.203125 7.320312 -48.75 9.15625 -48.75 C 10.988281 -48.75 12.484375 -48.203125 13.640625 -47.109375 C 14.796875 -46.023438 15.375 -44.71875 15.375 -43.1875 C 15.375 -41.707031 14.796875 -40.410156 13.640625 -39.296875 C 12.484375 -38.179688 10.988281 -37.625 9.15625 -37.625 Z M 9.15625 -37.625 "/></g></g></g><g fill="#111e1e" fill-opacity="1"><g transform="translate(236.475046, 87.113956)"><g><path d="M 20.609375 0.984375 C 17.910156 0.984375 15.40625 0.503906 13.09375 -0.453125 C 10.78125 -1.410156 8.769531 -2.707031 7.0625 -4.34375 C 5.363281 -5.988281 4.035156 -7.898438 3.078125 -10.078125 C 2.117188 -12.253906 1.640625 -14.566406 1.640625 -17.015625 C 1.640625 -19.453125 2.117188 -21.757812 3.078125 -23.9375 C 4.035156 -26.125 5.363281 -28.035156 7.0625 -29.671875 C 8.769531 -31.304688 10.78125 -32.601562 13.09375 -33.5625 C 15.40625 -34.53125 17.910156 -35.015625 20.609375 -35.015625 C 23.316406 -35.015625 25.828125 -34.53125 28.140625 -33.5625 C 30.453125 -32.601562 32.457031 -31.304688 34.15625 -29.671875 C 35.851562 -28.035156 37.179688 -26.125 38.140625 -23.9375 C 39.109375 -21.757812 39.59375 -19.453125 39.59375 -17.015625 C 39.59375 -14.566406 39.109375 -12.253906 38.140625 -10.078125 C 37.179688 -7.898438 35.851562 -5.988281 34.15625 -4.34375 C 32.457031 -2.707031 30.453125 -1.410156 28.140625 -0.453125 C 25.828125 0.503906 23.316406 0.984375 20.609375 0.984375 Z M 20.609375 -8.5 C 22.742188 -8.5 24.53125 -9.265625 25.96875 -10.796875 C 27.414062 -12.328125 28.140625 -14.398438 28.140625 -17.015625 C 28.140625 -19.628906 27.414062 -21.695312 25.96875 -23.21875 C 24.53125 -24.75 22.742188 -25.515625 20.609375 -25.515625 C 18.472656 -25.515625 16.6875 -24.75 15.25 -23.21875 C 13.8125 -21.695312 13.09375 -19.628906 13.09375 -17.015625 C 13.09375 -14.398438 13.8125 -12.328125 15.25 -10.796875 C 16.6875 -9.265625 18.472656 -8.5 20.609375 -8.5 Z M 20.609375 -8.5 "/></g></g></g><path fill="#711037" d="M 32.894531 56.003906 L 29.492188 56.003906 C 27.910156 56.003906 26.582031 54.675781 26.582031 53.097656 L 26.582031 47.03125 C 26.582031 45.453125 27.910156 44.125 29.492188 44.125 L 32.894531 44.125 C 34.476562 44.125 35.804688 45.453125 35.804688 47.03125 L 35.804688 53.097656 C 35.804688 54.675781 34.558594 56.003906 32.894531 56.003906 Z M 32.894531 56.003906 " fill-opacity="1" fill-rule="nonzero"/><path fill="#711037" d="M 47.433594 56.003906 L 44.027344 56.003906 C 42.449219 56.003906 41.121094 54.675781 41.121094 53.097656 L 41.121094 47.03125 C 41.121094 45.453125 42.449219 44.125 44.027344 44.125 L 47.433594 44.125 C 49.011719 44.125 50.339844 45.453125 50.339844 47.03125 L 50.339844 53.097656 C 50.339844 54.675781 49.011719 56.003906 47.433594 56.003906 Z M 47.433594 56.003906 " fill-opacity="1" fill-rule="nonzero"/><g clip-path="url(#1dd32d8c0b)"><path fill="#711037" d="M 39.460938 7.65625 C 17.695312 7.65625 0 25.351562 0 47.117188 C 0 68.878906 17.695312 86.574219 39.460938 86.574219 L 72.6875 86.574219 C 76.175781 86.574219 78.917969 83.75 78.917969 80.34375 L 78.917969 47.117188 C 78.917969 25.351562 61.222656 7.65625 39.460938 7.65625 Z M 67.121094 52.683594 C 67.121094 55.257812 65.046875 57.25 62.554688 57.25 L 60.476562 57.25 C 60.308594 57.25 60.0625 57.25 59.894531 57.167969 C 56.570312 64.230469 48.679688 69.128906 39.460938 69.128906 C 30.238281 69.128906 22.347656 64.230469 19.105469 57.25 L 17.03125 57.25 C 14.453125 57.25 12.460938 55.175781 12.460938 52.683594 L 12.460938 47.449219 C 12.460938 44.875 14.539062 42.878906 17.03125 42.878906 L 19.023438 42.878906 C 21.847656 36.898438 28.160156 32.414062 35.804688 31.332031 L 35.804688 26.347656 C 34.226562 25.433594 33.144531 23.773438 33.144531 21.777344 C 33.144531 18.871094 35.472656 16.546875 38.378906 16.546875 C 41.285156 16.546875 43.613281 18.871094 43.613281 21.777344 C 43.613281 23.691406 42.53125 25.433594 40.953125 26.347656 L 40.953125 31.082031 C 49.511719 31.664062 56.65625 36.316406 59.730469 42.878906 C 59.894531 42.878906 60.144531 42.796875 60.308594 42.796875 L 62.386719 42.796875 C 64.960938 42.796875 66.957031 44.875 66.957031 47.367188 L 66.957031 52.683594 Z M 67.121094 52.683594 " fill-opacity="1" fill-rule="nonzero"/></g><g transform="matrix(1, 0, 0, 1, 84, 6)"><g clip-path="url(#16853bdbca)"><g fill="#111e1e" fill-opacity="1"><g transform="translate(0.95424, 23.037908)"><g><path d="M 10.328125 0.5 C 9.003906 0.5 7.78125 0.269531 6.65625 -0.1875 C 5.53125 -0.644531 4.554688 -1.289062 3.734375 -2.125 C 2.921875 -2.957031 2.285156 -3.941406 1.828125 -5.078125 C 1.367188 -6.210938 1.140625 -7.460938 1.140625 -8.828125 C 1.140625 -10.179688 1.367188 -11.425781 1.828125 -12.5625 C 2.285156 -13.695312 2.921875 -14.679688 3.734375 -15.515625 C 4.554688 -16.347656 5.53125 -16.992188 6.65625 -17.453125 C 7.78125 -17.910156 9.003906 -18.140625 10.328125 -18.140625 C 11.222656 -18.140625 12.03125 -18.046875 12.75 -17.859375 C 13.476562 -17.679688 14.128906 -17.441406 14.703125 -17.140625 C 15.285156 -16.835938 15.796875 -16.492188 16.234375 -16.109375 C 16.671875 -15.722656 17.046875 -15.328125 17.359375 -14.921875 C 18.117188 -13.984375 18.675781 -12.914062 19.03125 -11.71875 L 16.765625 -11.71875 C 16.441406 -12.507812 15.992188 -13.222656 15.421875 -13.859375 C 15.171875 -14.128906 14.882812 -14.390625 14.5625 -14.640625 C 14.25 -14.890625 13.878906 -15.113281 13.453125 -15.3125 C 13.035156 -15.519531 12.566406 -15.6875 12.046875 -15.8125 C 11.523438 -15.9375 10.953125 -16 10.328125 -16 C 9.328125 -16 8.398438 -15.828125 7.546875 -15.484375 C 6.703125 -15.140625 5.972656 -14.648438 5.359375 -14.015625 C 4.742188 -13.390625 4.265625 -12.632812 3.921875 -11.75 C 3.578125 -10.875 3.40625 -9.898438 3.40625 -8.828125 C 3.40625 -7.742188 3.578125 -6.757812 3.921875 -5.875 C 4.265625 -5 4.742188 -4.242188 5.359375 -3.609375 C 5.972656 -2.984375 6.703125 -2.5 7.546875 -2.15625 C 8.398438 -1.8125 9.328125 -1.640625 10.328125 -1.640625 C 10.972656 -1.640625 11.5625 -1.707031 12.09375 -1.84375 C 12.632812 -1.976562 13.117188 -2.15625 13.546875 -2.375 C 13.972656 -2.59375 14.347656 -2.835938 14.671875 -3.109375 C 15.003906 -3.390625 15.296875 -3.671875 15.546875 -3.953125 C 16.117188 -4.628906 16.566406 -5.410156 16.890625 -6.296875 L 19.15625 -6.296875 C 18.75 -5.023438 18.160156 -3.890625 17.390625 -2.890625 C 17.054688 -2.460938 16.664062 -2.046875 16.21875 -1.640625 C 15.769531 -1.234375 15.253906 -0.867188 14.671875 -0.546875 C 14.097656 -0.234375 13.445312 0.015625 12.71875 0.203125 C 12 0.398438 11.203125 0.5 10.328125 0.5 Z M 10.328125 0.5 "/></g></g></g><g fill="#111e1e" fill-opacity="1"><g transform="translate(20.35519, 23.037908)"><g><path d="M 1.765625 -17.640625 L 3.78125 -17.640625 L 3.78125 -10.71875 L 3.8125 -10.71875 C 4.0625 -11.113281 4.382812 -11.460938 4.78125 -11.765625 C 5.125 -12.035156 5.566406 -12.285156 6.109375 -12.515625 C 6.660156 -12.742188 7.3125 -12.859375 8.0625 -12.859375 C 8.820312 -12.859375 9.507812 -12.734375 10.125 -12.484375 C 10.75 -12.242188 11.28125 -11.890625 11.71875 -11.421875 C 12.15625 -10.953125 12.492188 -10.382812 12.734375 -9.71875 C 12.984375 -9.050781 13.109375 -8.289062 13.109375 -7.4375 L 13.109375 0 L 11.09375 0 L 11.09375 -7.3125 C 11.09375 -8.570312 10.773438 -9.492188 10.140625 -10.078125 C 9.515625 -10.671875 8.695312 -10.96875 7.6875 -10.96875 C 7.113281 -10.96875 6.585938 -10.867188 6.109375 -10.671875 C 5.628906 -10.484375 5.21875 -10.203125 4.875 -9.828125 C 4.53125 -9.460938 4.257812 -9.019531 4.0625 -8.5 C 3.875 -7.988281 3.78125 -7.425781 3.78125 -6.8125 L 3.78125 0 L 1.765625 0 Z M 1.765625 -17.640625 "/></g></g></g><g fill="#111e1e" fill-opacity="1"><g transform="translate(34.212934, 23.037908)"><g><path d="M 7.0625 0.25 C 6.238281 0.25 5.457031 0.0859375 4.71875 -0.234375 C 3.988281 -0.566406 3.347656 -1.019531 2.796875 -1.59375 C 2.242188 -2.175781 1.804688 -2.867188 1.484375 -3.671875 C 1.171875 -4.484375 1.015625 -5.359375 1.015625 -6.296875 C 1.015625 -7.242188 1.171875 -8.117188 1.484375 -8.921875 C 1.804688 -9.722656 2.242188 -10.414062 2.796875 -11 C 3.347656 -11.582031 3.988281 -12.035156 4.71875 -12.359375 C 5.457031 -12.691406 6.238281 -12.859375 7.0625 -12.859375 C 7.882812 -12.859375 8.578125 -12.738281 9.140625 -12.5 C 9.710938 -12.257812 10.179688 -12 10.546875 -11.71875 C 10.910156 -11.4375 11.171875 -11.171875 11.328125 -10.921875 C 11.484375 -10.679688 11.5625 -10.5625 11.5625 -10.5625 L 11.59375 -10.5625 L 11.59375 -12.609375 L 13.609375 -12.609375 L 13.609375 0 L 11.59375 0 L 11.59375 -2.015625 L 11.5625 -2.015625 C 11.5625 -2.015625 11.484375 -1.890625 11.328125 -1.640625 C 11.171875 -1.398438 10.910156 -1.140625 10.546875 -0.859375 C 10.179688 -0.585938 9.710938 -0.332031 9.140625 -0.09375 C 8.578125 0.132812 7.882812 0.25 7.0625 0.25 Z M 7.3125 -1.640625 C 7.914062 -1.640625 8.476562 -1.75 9 -1.96875 C 9.519531 -2.195312 9.972656 -2.515625 10.359375 -2.921875 C 10.742188 -3.335938 11.046875 -3.832031 11.265625 -4.40625 C 11.484375 -4.976562 11.59375 -5.609375 11.59375 -6.296875 C 11.59375 -6.984375 11.484375 -7.613281 11.265625 -8.1875 C 11.046875 -8.757812 10.742188 -9.25 10.359375 -9.65625 C 9.972656 -10.070312 9.519531 -10.394531 9 -10.625 C 8.476562 -10.851562 7.914062 -10.96875 7.3125 -10.96875 C 6.707031 -10.96875 6.144531 -10.851562 5.625 -10.625 C 5.101562 -10.394531 4.644531 -10.070312 4.25 -9.65625 C 3.863281 -9.25 3.5625 -8.757812 3.34375 -8.1875 C 3.132812 -7.613281 3.03125 -6.984375 3.03125 -6.296875 C 3.03125 -5.609375 3.132812 -4.976562 3.34375 -4.40625 C 3.5625 -3.832031 3.863281 -3.335938 4.25 -2.921875 C 4.644531 -2.515625 5.101562 -2.195312 5.625 -1.96875 C 6.144531 -1.75 6.707031 -1.640625 7.3125 -1.640625 Z M 7.3125 -1.640625 "/></g></g></g><g fill="#111e1e" fill-opacity="1"><g transform="translate(48.826567, 23.037908)"><g><path d="M 2.265625 -10.71875 L 0.625 -10.71875 L 0.625 -12.609375 L 2.265625 -12.609375 L 2.265625 -15.375 L 4.28125 -15.375 L 4.28125 -12.609375 L 8.3125 -12.609375 L 8.3125 -10.71875 L 4.28125 -10.71875 L 4.28125 -1.890625 L 8.4375 -1.890625 L 8.4375 0 L 2.265625 0 Z M 2.265625 -10.71875 "/></g></g></g><g fill="#111e1e" fill-opacity="1"><g transform="translate(57.26709, 23.037908)"><g><path d="M 2.015625 -17.640625 L 10.453125 -17.640625 C 11.242188 -17.640625 11.957031 -17.519531 12.59375 -17.28125 C 13.238281 -17.050781 13.78125 -16.726562 14.21875 -16.3125 C 14.664062 -15.90625 15.007812 -15.421875 15.25 -14.859375 C 15.5 -14.304688 15.625 -13.722656 15.625 -13.109375 C 15.625 -12.347656 15.492188 -11.722656 15.234375 -11.234375 C 14.972656 -10.753906 14.679688 -10.367188 14.359375 -10.078125 C 13.992188 -9.742188 13.578125 -9.492188 13.109375 -9.328125 L 13.109375 -9.203125 C 13.710938 -9.066406 14.257812 -8.832031 14.75 -8.5 C 15.144531 -8.207031 15.515625 -7.785156 15.859375 -7.234375 C 16.203125 -6.679688 16.375 -5.953125 16.375 -5.046875 C 16.375 -4.316406 16.242188 -3.644531 15.984375 -3.03125 C 15.722656 -2.414062 15.335938 -1.878906 14.828125 -1.421875 C 14.316406 -0.972656 13.679688 -0.625 12.921875 -0.375 C 12.171875 -0.125 11.304688 0 10.328125 0 L 2.015625 0 Z M 10.328125 -2.140625 C 11.585938 -2.140625 12.53125 -2.414062 13.15625 -2.96875 C 13.789062 -3.53125 14.109375 -4.222656 14.109375 -5.046875 C 14.109375 -5.929688 13.789062 -6.65625 13.15625 -7.21875 C 12.53125 -7.78125 11.585938 -8.0625 10.328125 -8.0625 L 4.28125 -8.0625 L 4.28125 -2.140625 Z M 10.328125 -10.203125 C 11.285156 -10.203125 12.03125 -10.453125 12.5625 -10.953125 C 13.09375 -11.460938 13.359375 -12.097656 13.359375 -12.859375 C 13.359375 -13.609375 13.09375 -14.234375 12.5625 -14.734375 C 12.03125 -15.242188 11.285156 -15.5 10.328125 -15.5 L 4.28125 -15.5 L 4.28125 -10.203125 Z M 10.328125 -10.203125 "/></g></g></g><g fill="#111e1e" fill-opacity="1"><g transform="translate(74.148389, 23.037908)"><g><path d="M 7.5625 0.25 C 6.625 0.25 5.75 0.0859375 4.9375 -0.234375 C 4.132812 -0.566406 3.441406 -1.019531 2.859375 -1.59375 C 2.273438 -2.175781 1.820312 -2.867188 1.5 -3.671875 C 1.175781 -4.484375 1.015625 -5.359375 1.015625 -6.296875 C 1.015625 -7.242188 1.175781 -8.117188 1.5 -8.921875 C 1.820312 -9.722656 2.273438 -10.414062 2.859375 -11 C 3.441406 -11.582031 4.132812 -12.035156 4.9375 -12.359375 C 5.75 -12.691406 6.625 -12.859375 7.5625 -12.859375 C 8.5 -12.859375 9.367188 -12.691406 10.171875 -12.359375 C 10.984375 -12.035156 11.675781 -11.582031 12.25 -11 C 12.832031 -10.414062 13.285156 -9.722656 13.609375 -8.921875 C 13.941406 -8.117188 14.109375 -7.242188 14.109375 -6.296875 C 14.109375 -5.359375 13.941406 -4.484375 13.609375 -3.671875 C 13.285156 -2.867188 12.832031 -2.175781 12.25 -1.59375 C 11.675781 -1.019531 10.984375 -0.566406 10.171875 -0.234375 C 9.367188 0.0859375 8.5 0.25 7.5625 0.25 Z M 7.5625 -1.640625 C 8.21875 -1.640625 8.820312 -1.75 9.375 -1.96875 C 9.925781 -2.195312 10.40625 -2.515625 10.8125 -2.921875 C 11.21875 -3.335938 11.53125 -3.832031 11.75 -4.40625 C 11.976562 -4.976562 12.09375 -5.609375 12.09375 -6.296875 C 12.09375 -6.984375 11.976562 -7.613281 11.75 -8.1875 C 11.53125 -8.757812 11.21875 -9.25 10.8125 -9.65625 C 10.40625 -10.070312 9.925781 -10.394531 9.375 -10.625 C 8.820312 -10.851562 8.21875 -10.96875 7.5625 -10.96875 C 6.90625 -10.96875 6.300781 -10.851562 5.75 -10.625 C 5.195312 -10.394531 4.71875 -10.070312 4.3125 -9.65625 C 3.90625 -9.25 3.585938 -8.757812 3.359375 -8.1875 C 3.140625 -7.613281 3.03125 -6.984375 3.03125 -6.296875 C 3.03125 -5.609375 3.140625 -4.976562 3.359375 -4.40625 C 3.585938 -3.832031 3.90625 -3.335938 4.3125 -2.921875 C 4.71875 -2.515625 5.195312 -2.195312 5.75 -1.96875 C 6.300781 -1.75 6.90625 -1.640625 7.5625 -1.640625 Z M 7.5625 -1.640625 "/></g></g></g><g fill="#111e1e" fill-opacity="1"><g transform="translate(88.510054, 23.037908)"><g><path d="M 2.265625 -10.71875 L 0.625 -10.71875 L 0.625 -12.609375 L 2.265625 -12.609375 L 2.265625 -15.375 L 4.28125 -15.375 L 4.28125 -12.609375 L 8.3125 -12.609375 L 8.3125 -10.71875 L 4.28125 -10.71875 L 4.28125 -1.890625 L 8.4375 -1.890625 L 8.4375 0 L 2.265625 0 Z M 2.265625 -10.71875 "/></g></g></g><g fill="#111e1e" fill-opacity="1"><g transform="translate(96.950577, 23.037908)"><g/></g></g><g fill="#111e1e" fill-opacity="1"><g transform="translate(102.49329, 23.037908)"><g><path d="M 5.046875 -17.640625 L 11.96875 -17.640625 L 16.515625 0 L 14.234375 0 L 12.859375 -5.171875 L 4.15625 -5.171875 L 2.765625 0 L 0.5 0 Z M 12.34375 -7.3125 L 10.203125 -15.5 L 6.8125 -15.5 L 4.65625 -7.3125 Z M 12.34375 -7.3125 "/></g></g></g><g fill="#111e1e" fill-opacity="1"><g transform="translate(118.744685, 23.037908)"><g><path d="M 2.015625 -17.640625 L 4.28125 -17.640625 L 4.28125 0 L 2.015625 0 Z M 2.015625 -17.640625 "/></g></g></g></g></g></svg>