<svg xmlns="http://www.w3.org/2000/svg" xmlns:xlink="http://www.w3.org/1999/xlink" width="298" zoomAndPan="magnify" viewBox="0 0 223.5 94.499997" height="126" preserveAspectRatio="xMidYMid meet" version="1.0"><defs><clipPath id="e523fd75cd"><path d="M 3.730469 15.234375 L 64.894531 15.234375 L 64.894531 76.398438 L 3.730469 76.398438 Z M 3.730469 15.234375 " clip-rule="nonzero"/></clipPath></defs><path fill="#ffffff" d="M 71.332031 41.390625 L 89.140625 41.390625 C 91.308594 41.390625 93.261719 41.722656 95.003906 42.386719 C 96.753906 43.050781 98.25 43.941406 99.488281 45.058594 C 100.726562 46.175781 101.6875 47.492188 102.367188 49.003906 C 103.046875 50.511719 103.386719 52.125 103.386719 53.851562 C 103.386719 55.179688 103.1875 56.394531 102.789062 57.492188 C 102.402344 58.597656 101.882812 59.582031 101.234375 60.445312 C 100.59375 61.3125 99.84375 62.085938 98.976562 62.765625 C 98.117188 63.4375 97.210938 64.027344 96.257812 64.539062 L 103.640625 77 L 93.464844 77 L 87.109375 66.324219 L 80.746094 66.324219 L 80.746094 77 L 71.332031 77 Z M 88.882812 57.675781 C 90.414062 57.675781 91.597656 57.296875 92.441406 56.535156 C 93.292969 55.765625 93.71875 54.871094 93.71875 53.851562 C 93.71875 52.839844 93.292969 51.953125 92.441406 51.191406 C 91.597656 50.421875 90.414062 50.035156 88.882812 50.035156 L 80.746094 50.035156 L 80.746094 57.675781 Z M 88.882812 57.675781 " fill-opacity="1" fill-rule="nonzero"/><path fill="#ffffff" d="M 112.027344 41.390625 L 129.324219 41.390625 L 138.980469 77 L 129.324219 77 L 127.539062 69.882812 L 113.800781 69.882812 L 112.027344 77 L 102.359375 77 Z M 125.507812 61.746094 L 122.449219 50.035156 L 118.890625 50.035156 L 115.839844 61.746094 Z M 125.507812 61.746094 " fill-opacity="1" fill-rule="nonzero"/><path fill="#ffffff" d="M 156.527344 78.019531 C 153.613281 78.019531 150.933594 77.539062 148.488281 76.574219 C 146.050781 75.601562 143.957031 74.28125 142.210938 72.601562 C 140.460938 70.921875 139.101562 68.933594 138.140625 66.652344 C 137.175781 64.363281 136.695312 61.875 136.695312 59.195312 C 136.695312 56.515625 137.175781 54.03125 138.140625 51.75 C 139.101562 49.460938 140.460938 47.472656 142.210938 45.796875 C 143.957031 44.117188 146.050781 42.792969 148.488281 41.828125 C 150.933594 40.863281 153.613281 40.378906 156.527344 40.378906 C 158.464844 40.378906 160.210938 40.574219 161.765625 40.964844 C 163.324219 41.351562 164.726562 41.871094 165.964844 42.519531 C 167.207031 43.160156 168.289062 43.878906 169.222656 44.679688 C 170.152344 45.476562 170.957031 46.296875 171.636719 47.144531 C 173.234375 49.113281 174.386719 51.347656 175.101562 53.851562 L 165.433594 53.851562 C 164.984375 52.976562 164.355469 52.183594 163.550781 51.46875 C 162.871094 50.855469 161.957031 50.296875 160.816406 49.792969 C 159.679688 49.285156 158.253906 49.027344 156.527344 49.027344 C 155.070312 49.027344 153.730469 49.277344 152.507812 49.769531 C 151.285156 50.253906 150.242188 50.941406 149.375 51.820312 C 148.515625 52.707031 147.839844 53.773438 147.347656 55.027344 C 146.851562 56.285156 146.605469 57.671875 146.605469 59.195312 C 146.605469 60.726562 146.851562 62.117188 147.347656 63.371094 C 147.839844 64.628906 148.515625 65.699219 149.375 66.578125 C 150.242188 67.453125 151.285156 68.140625 152.507812 68.632812 C 153.730469 69.125 155.070312 69.371094 156.527344 69.371094 C 158.328125 69.371094 159.789062 69.113281 160.925781 68.582031 C 162.058594 68.058594 162.964844 67.472656 163.644531 66.820312 C 164.429688 66.078125 165.023438 65.230469 165.433594 64.285156 L 160.597656 64.285156 L 160.597656 57.167969 L 179.167969 57.167969 L 179.167969 64.285156 L 175.148438 64.285156 C 174.328125 66.859375 173.109375 69.148438 171.480469 71.144531 C 170.765625 72.03125 169.945312 72.878906 169.015625 73.695312 C 168.082031 74.507812 167 75.234375 165.761719 75.882812 C 164.519531 76.523438 163.136719 77.035156 161.605469 77.425781 C 160.082031 77.820312 158.390625 78.019531 156.527344 78.019531 Z M 156.527344 78.019531 " fill-opacity="1" fill-rule="nonzero"/><path fill="#ffffff" d="M 179.152344 50.546875 L 187.800781 50.546875 L 187.800781 77 L 179.152344 77 Z M 183.476562 47.753906 C 182.050781 47.753906 180.890625 47.320312 179.992188 46.453125 C 179.09375 45.589844 178.644531 44.582031 178.644531 43.429688 C 178.644531 42.238281 179.09375 41.226562 179.992188 40.378906 C 180.890625 39.53125 182.050781 39.105469 183.476562 39.105469 C 184.902344 39.105469 186.066406 39.53125 186.964844 40.378906 C 187.863281 41.226562 188.3125 42.238281 188.3125 43.429688 C 188.3125 44.582031 187.863281 45.589844 186.964844 46.453125 C 186.066406 47.320312 184.902344 47.753906 183.476562 47.753906 Z M 183.476562 47.753906 " fill-opacity="1" fill-rule="nonzero"/><path fill="#ffffff" d="M 203.570312 77.765625 C 201.472656 77.765625 199.523438 77.390625 197.726562 76.648438 C 195.929688 75.902344 194.367188 74.894531 193.039062 73.625 C 191.71875 72.34375 190.6875 70.859375 189.941406 69.167969 C 189.195312 67.476562 188.824219 65.675781 188.824219 63.773438 C 188.824219 61.878906 189.195312 60.085938 189.941406 58.394531 C 190.6875 56.691406 191.71875 55.207031 193.039062 53.933594 C 194.367188 52.667969 195.929688 51.65625 197.726562 50.910156 C 199.523438 50.15625 201.472656 49.78125 203.570312 49.78125 C 205.671875 49.78125 207.625 50.15625 209.421875 50.910156 C 211.222656 51.65625 212.777344 52.667969 214.097656 53.933594 C 215.417969 55.207031 216.449219 56.691406 217.195312 58.394531 C 217.949219 60.085938 218.324219 61.878906 218.324219 63.773438 C 218.324219 65.675781 217.949219 67.476562 217.195312 69.167969 C 216.449219 70.859375 215.417969 72.34375 214.097656 73.625 C 212.777344 74.894531 211.222656 75.902344 209.421875 76.648438 C 207.625 77.390625 205.671875 77.765625 203.570312 77.765625 Z M 203.570312 70.394531 C 205.226562 70.394531 206.617188 69.796875 207.734375 68.605469 C 208.859375 67.417969 209.421875 65.808594 209.421875 63.773438 C 209.421875 61.742188 208.859375 60.136719 207.734375 58.953125 C 206.617188 57.761719 205.226562 57.167969 203.570312 57.167969 C 201.90625 57.167969 200.519531 57.761719 199.402344 58.953125 C 198.285156 60.136719 197.726562 61.742188 197.726562 63.773438 C 197.726562 65.808594 198.285156 67.417969 199.402344 68.605469 C 200.519531 69.796875 201.90625 70.394531 203.570312 70.394531 Z M 203.570312 70.394531 " fill-opacity="1" fill-rule="nonzero"/><path fill="#711037" d="M 29.300781 52.816406 L 26.65625 52.816406 C 25.425781 52.816406 24.394531 51.785156 24.394531 50.558594 L 24.394531 45.84375 C 24.394531 44.617188 25.425781 43.582031 26.65625 43.582031 L 29.300781 43.582031 C 30.53125 43.582031 31.5625 44.617188 31.5625 45.84375 L 31.5625 50.558594 C 31.5625 51.785156 30.59375 52.816406 29.300781 52.816406 Z M 29.300781 52.816406 " fill-opacity="1" fill-rule="nonzero"/><path fill="#711037" d="M 40.601562 52.816406 L 37.953125 52.816406 C 36.726562 52.816406 35.695312 51.785156 35.695312 50.558594 L 35.695312 45.84375 C 35.695312 44.617188 36.726562 43.582031 37.953125 43.582031 L 40.601562 43.582031 C 41.828125 43.582031 42.863281 44.617188 42.863281 45.84375 L 42.863281 50.558594 C 42.863281 51.785156 41.828125 52.816406 40.601562 52.816406 Z M 40.601562 52.816406 " fill-opacity="1" fill-rule="nonzero"/><g clip-path="url(#e523fd75cd)"><path fill="#711037" d="M 34.40625 15.234375 C 17.488281 15.234375 3.730469 28.992188 3.730469 45.910156 C 3.730469 62.824219 17.488281 76.582031 34.40625 76.582031 L 60.234375 76.582031 C 62.945312 76.582031 65.078125 74.386719 65.078125 71.738281 L 65.078125 45.910156 C 65.078125 28.992188 51.320312 15.234375 34.40625 15.234375 Z M 55.90625 50.238281 C 55.90625 52.238281 54.292969 53.785156 52.355469 53.785156 L 50.742188 53.785156 C 50.609375 53.785156 50.417969 53.785156 50.289062 53.722656 C 47.703125 59.210938 41.570312 63.019531 34.40625 63.019531 C 27.238281 63.019531 21.101562 59.210938 18.582031 53.785156 L 16.96875 53.785156 C 14.964844 53.785156 13.417969 52.171875 13.417969 50.238281 L 13.417969 46.167969 C 13.417969 44.167969 15.03125 42.613281 16.96875 42.613281 L 18.519531 42.613281 C 20.714844 37.964844 25.621094 34.480469 31.5625 33.640625 L 31.5625 29.765625 C 30.335938 29.054688 29.496094 27.765625 29.496094 26.210938 C 29.496094 23.953125 31.304688 22.148438 33.5625 22.148438 C 35.824219 22.148438 37.632812 23.953125 37.632812 26.210938 C 37.632812 27.699219 36.792969 29.054688 35.566406 29.765625 L 35.566406 33.445312 C 42.21875 33.898438 47.773438 37.515625 50.160156 42.613281 C 50.289062 42.613281 50.484375 42.550781 50.609375 42.550781 L 52.226562 42.550781 C 54.226562 42.550781 55.777344 44.167969 55.777344 46.105469 L 55.777344 50.238281 Z M 55.90625 50.238281 " fill-opacity="1" fill-rule="nonzero"/></g><path fill="#ffffff" d="M 77.796875 32.246094 C 76.765625 32.246094 75.816406 32.066406 74.941406 31.710938 C 74.066406 31.355469 73.308594 30.855469 72.671875 30.203125 C 72.039062 29.558594 71.542969 28.792969 71.1875 27.910156 C 70.832031 27.027344 70.65625 26.058594 70.65625 24.992188 C 70.65625 23.941406 70.832031 22.976562 71.1875 22.089844 C 71.542969 21.210938 72.039062 20.445312 72.671875 19.796875 C 73.308594 19.148438 74.066406 18.648438 74.941406 18.289062 C 75.816406 17.933594 76.765625 17.753906 77.796875 17.753906 C 78.492188 17.753906 79.121094 17.828125 79.679688 17.972656 C 80.242188 18.113281 80.75 18.296875 81.199219 18.53125 C 81.648438 18.769531 82.046875 19.035156 82.386719 19.335938 C 82.726562 19.632812 83.019531 19.941406 83.261719 20.257812 C 83.851562 20.984375 84.285156 21.816406 84.5625 22.746094 L 82.800781 22.746094 C 82.546875 22.132812 82.199219 21.578125 81.757812 21.082031 C 81.5625 20.875 81.335938 20.671875 81.089844 20.476562 C 80.84375 20.28125 80.558594 20.109375 80.226562 19.953125 C 79.902344 19.792969 79.535156 19.660156 79.132812 19.566406 C 78.726562 19.46875 78.28125 19.417969 77.796875 19.417969 C 77.019531 19.417969 76.296875 19.550781 75.632812 19.820312 C 74.980469 20.085938 74.410156 20.46875 73.933594 20.960938 C 73.453125 21.449219 73.085938 22.035156 72.816406 22.722656 C 72.550781 23.402344 72.417969 24.160156 72.417969 24.992188 C 72.417969 25.839844 72.550781 26.601562 72.816406 27.289062 C 73.085938 27.96875 73.453125 28.558594 73.933594 29.050781 C 74.410156 29.535156 74.980469 29.914062 75.632812 30.179688 C 76.296875 30.449219 77.019531 30.582031 77.796875 30.582031 C 78.296875 30.582031 78.757812 30.527344 79.167969 30.421875 C 79.589844 30.320312 79.964844 30.179688 80.296875 30.011719 C 80.628906 29.839844 80.921875 29.652344 81.171875 29.4375 C 81.429688 29.21875 81.660156 29.003906 81.851562 28.785156 C 82.296875 28.257812 82.644531 27.652344 82.898438 26.960938 L 84.660156 26.960938 C 84.34375 27.953125 83.882812 28.832031 83.285156 29.609375 C 83.023438 29.941406 82.722656 30.265625 82.375 30.582031 C 82.027344 30.898438 81.625 31.183594 81.171875 31.429688 C 80.726562 31.675781 80.21875 31.867188 79.65625 32.015625 C 79.097656 32.164062 78.476562 32.246094 77.796875 32.246094 Z M 77.796875 32.246094 " fill-opacity="1" fill-rule="nonzero"/><path fill="#ffffff" d="M 86.222656 18.144531 L 87.789062 18.144531 L 87.789062 23.523438 L 87.8125 23.523438 C 88.007812 23.21875 88.257812 22.949219 88.566406 22.710938 C 88.832031 22.5 89.175781 22.308594 89.597656 22.128906 C 90.027344 21.953125 90.535156 21.859375 91.117188 21.859375 C 91.707031 21.859375 92.238281 21.957031 92.71875 22.152344 C 93.207031 22.339844 93.617188 22.613281 93.957031 22.976562 C 94.296875 23.34375 94.558594 23.785156 94.746094 24.300781 C 94.941406 24.820312 95.039062 25.414062 95.039062 26.074219 L 95.039062 31.855469 L 93.472656 31.855469 L 93.472656 26.171875 C 93.472656 25.195312 93.222656 24.476562 92.730469 24.023438 C 92.246094 23.5625 91.609375 23.328125 90.824219 23.328125 C 90.378906 23.328125 89.96875 23.410156 89.597656 23.5625 C 89.222656 23.707031 88.90625 23.925781 88.636719 24.214844 C 88.371094 24.503906 88.160156 24.84375 88.007812 25.25 C 87.859375 25.648438 87.789062 26.082031 87.789062 26.5625 L 87.789062 31.855469 L 86.222656 31.855469 Z M 86.222656 18.144531 " fill-opacity="1" fill-rule="nonzero"/><path fill="#ffffff" d="M 101.109375 32.050781 C 100.46875 32.050781 99.863281 31.921875 99.289062 31.675781 C 98.722656 31.414062 98.222656 31.0625 97.796875 30.617188 C 97.363281 30.164062 97.023438 29.628906 96.773438 29.003906 C 96.53125 28.371094 96.410156 27.691406 96.410156 26.960938 C 96.410156 26.226562 96.53125 25.546875 96.773438 24.921875 C 97.023438 24.296875 97.363281 23.761719 97.796875 23.304688 C 98.222656 22.851562 98.722656 22.5 99.289062 22.25 C 99.863281 21.992188 100.46875 21.859375 101.109375 21.859375 C 101.75 21.859375 102.289062 21.953125 102.726562 22.140625 C 103.167969 22.328125 103.535156 22.527344 103.820312 22.746094 C 104.101562 22.964844 104.304688 23.171875 104.425781 23.367188 C 104.546875 23.554688 104.609375 23.644531 104.609375 23.644531 L 104.632812 23.644531 L 104.632812 22.054688 L 106.199219 22.054688 L 106.199219 31.855469 L 104.632812 31.855469 L 104.632812 30.289062 L 104.609375 30.289062 C 104.609375 30.289062 104.546875 30.386719 104.425781 30.582031 C 104.304688 30.769531 104.101562 30.96875 103.820312 31.1875 C 103.535156 31.402344 103.167969 31.597656 102.726562 31.785156 C 102.289062 31.960938 101.75 32.050781 101.109375 32.050781 Z M 101.304688 30.582031 C 101.773438 30.582031 102.210938 30.496094 102.617188 30.324219 C 103.019531 30.148438 103.375 29.902344 103.671875 29.585938 C 103.972656 29.261719 104.207031 28.878906 104.378906 28.429688 C 104.546875 27.988281 104.632812 27.496094 104.632812 26.960938 C 104.632812 26.425781 104.546875 25.9375 104.378906 25.492188 C 104.207031 25.046875 103.972656 24.664062 103.671875 24.351562 C 103.375 24.027344 103.019531 23.777344 102.617188 23.597656 C 102.210938 23.421875 101.773438 23.328125 101.304688 23.328125 C 100.835938 23.328125 100.398438 23.421875 99.992188 23.597656 C 99.585938 23.777344 99.230469 24.027344 98.925781 24.351562 C 98.625 24.664062 98.390625 25.046875 98.21875 25.492188 C 98.054688 25.9375 97.976562 26.425781 97.976562 26.960938 C 97.976562 27.496094 98.054688 27.988281 98.21875 28.429688 C 98.390625 28.878906 98.625 29.261719 98.925781 29.585938 C 99.230469 29.902344 99.585938 30.148438 99.992188 30.324219 C 100.398438 30.496094 100.835938 30.582031 101.304688 30.582031 Z M 101.304688 30.582031 " fill-opacity="1" fill-rule="nonzero"/><path fill="#ffffff" d="M 108.742188 23.523438 L 107.464844 23.523438 L 107.464844 22.054688 L 108.742188 22.054688 L 108.742188 19.90625 L 110.308594 19.90625 L 110.308594 22.054688 L 113.441406 22.054688 L 113.441406 23.523438 L 110.308594 23.523438 L 110.308594 30.386719 L 113.539062 30.386719 L 113.539062 31.855469 L 108.742188 31.855469 Z M 108.742188 23.523438 " fill-opacity="1" fill-rule="nonzero"/><path fill="#ffffff" d="M 115.109375 18.144531 L 121.667969 18.144531 C 122.28125 18.144531 122.835938 18.238281 123.332031 18.421875 C 123.832031 18.601562 124.253906 18.855469 124.59375 19.175781 C 124.941406 19.492188 125.207031 19.867188 125.394531 20.304688 C 125.589844 20.738281 125.6875 21.1875 125.6875 21.664062 C 125.6875 22.257812 125.585938 22.742188 125.382812 23.125 C 125.179688 23.496094 124.953125 23.796875 124.703125 24.023438 C 124.417969 24.285156 124.097656 24.476562 123.730469 24.605469 L 123.730469 24.703125 C 124.199219 24.808594 124.625 24.992188 125.007812 25.25 C 125.3125 25.476562 125.601562 25.804688 125.871094 26.234375 C 126.136719 26.664062 126.269531 27.230469 126.269531 27.933594 C 126.269531 28.5 126.167969 29.023438 125.964844 29.5 C 125.761719 29.980469 125.460938 30.394531 125.066406 30.75 C 124.671875 31.101562 124.175781 31.371094 123.585938 31.566406 C 123.003906 31.757812 122.328125 31.855469 121.570312 31.855469 L 115.109375 31.855469 Z M 121.570312 30.191406 C 122.546875 30.191406 123.28125 29.980469 123.769531 29.546875 C 124.261719 29.109375 124.507812 28.574219 124.507812 27.933594 C 124.507812 27.246094 124.261719 26.683594 123.769531 26.246094 C 123.28125 25.808594 122.546875 25.589844 121.570312 25.589844 L 116.871094 25.589844 L 116.871094 30.191406 Z M 121.570312 23.925781 C 122.3125 23.925781 122.894531 23.730469 123.308594 23.34375 C 123.71875 22.949219 123.925781 22.453125 123.925781 21.859375 C 123.925781 21.277344 123.71875 20.792969 123.308594 20.402344 C 122.894531 20.007812 122.3125 19.808594 121.570312 19.808594 L 116.871094 19.808594 L 116.871094 23.925781 Z M 121.570312 23.925781 " fill-opacity="1" fill-rule="nonzero"/><path fill="#ffffff" d="M 132.542969 32.050781 C 131.8125 32.050781 131.132812 31.921875 130.5 31.675781 C 129.875 31.414062 129.339844 31.0625 128.886719 30.617188 C 128.429688 30.164062 128.078125 29.628906 127.828125 29.003906 C 127.578125 28.371094 127.453125 27.691406 127.453125 26.960938 C 127.453125 26.226562 127.578125 25.546875 127.828125 24.921875 C 128.078125 24.296875 128.429688 23.761719 128.886719 23.304688 C 129.339844 22.851562 129.875 22.5 130.5 22.25 C 131.132812 21.992188 131.8125 21.859375 132.542969 21.859375 C 133.269531 21.859375 133.945312 21.992188 134.570312 22.25 C 135.203125 22.5 135.738281 22.851562 136.1875 23.304688 C 136.636719 23.761719 136.992188 24.296875 137.242188 24.921875 C 137.5 25.546875 137.632812 26.226562 137.632812 26.960938 C 137.632812 27.691406 137.5 28.371094 137.242188 29.003906 C 136.992188 29.628906 136.636719 30.164062 136.1875 30.617188 C 135.738281 31.0625 135.203125 31.414062 134.570312 31.675781 C 133.945312 31.921875 133.269531 32.050781 132.542969 32.050781 Z M 132.542969 30.582031 C 133.050781 30.582031 133.519531 30.496094 133.953125 30.324219 C 134.378906 30.148438 134.753906 29.902344 135.070312 29.585938 C 135.382812 29.261719 135.628906 28.878906 135.796875 28.429688 C 135.972656 27.988281 136.066406 27.496094 136.066406 26.960938 C 136.066406 26.425781 135.972656 25.9375 135.796875 25.492188 C 135.628906 25.046875 135.382812 24.664062 135.070312 24.351562 C 134.753906 24.027344 134.378906 23.777344 133.953125 23.597656 C 133.519531 23.421875 133.050781 23.328125 132.542969 23.328125 C 132.03125 23.328125 131.5625 23.421875 131.132812 23.597656 C 130.703125 23.777344 130.332031 24.027344 130.015625 24.351562 C 129.699219 24.664062 129.453125 25.046875 129.273438 25.492188 C 129.105469 25.9375 129.019531 26.425781 129.019531 26.960938 C 129.019531 27.496094 129.105469 27.988281 129.273438 28.429688 C 129.453125 28.878906 129.699219 29.261719 130.015625 29.585938 C 130.332031 29.902344 130.703125 30.148438 131.132812 30.324219 C 131.5625 30.496094 132.03125 30.582031 132.542969 30.582031 Z M 132.542969 30.582031 " fill-opacity="1" fill-rule="nonzero"/><path fill="#ffffff" d="M 139.589844 23.523438 L 138.3125 23.523438 L 138.3125 22.054688 L 139.589844 22.054688 L 139.589844 19.90625 L 141.15625 19.90625 L 141.15625 22.054688 L 144.289062 22.054688 L 144.289062 23.523438 L 141.15625 23.523438 L 141.15625 30.386719 L 144.386719 30.386719 L 144.386719 31.855469 L 139.589844 31.855469 Z M 139.589844 23.523438 " fill-opacity="1" fill-rule="nonzero"/><path fill="#ffffff" d="M 152.621094 18.144531 L 158 18.144531 L 161.535156 31.855469 L 159.761719 31.855469 L 158.691406 27.835938 L 151.929688 27.835938 L 150.847656 31.855469 L 149.085938 31.855469 Z M 158.292969 26.171875 L 156.628906 19.808594 L 153.992188 19.808594 L 152.316406 26.171875 Z M 158.292969 26.171875 " fill-opacity="1" fill-rule="nonzero"/><path fill="#ffffff" d="M 162.894531 18.144531 L 164.65625 18.144531 L 164.65625 31.855469 L 162.894531 31.855469 Z M 162.894531 18.144531 " fill-opacity="1" fill-rule="nonzero"/></svg>